<mxfile host="app.diagrams.net" agent="Mozilla/5.0 (X11; Ubuntu; Linux x86_64; rv:143.0) Gecko/20100101 Firefox/143.0" version="28.2.5">
  <diagram name="Page-1" id="RqcjGOTUUNw0BBsbkur-">
    <mxGraphModel dx="1351" dy="800" grid="1" gridSize="10" guides="1" tooltips="1" connect="1" arrows="1" fold="1" page="1" pageScale="1" pageWidth="827" pageHeight="1169" math="0" shadow="0">
      <root>
        <mxCell id="0" />
        <mxCell id="1" parent="0" />
        <mxCell id="9MRWpv_TvlSRi_-6uxEs-28" style="edgeStyle=orthogonalEdgeStyle;rounded=0;orthogonalLoop=1;jettySize=auto;html=1;entryX=0.25;entryY=0;entryDx=0;entryDy=0;" edge="1" parent="1" source="9MRWpv_TvlSRi_-6uxEs-1" target="9MRWpv_TvlSRi_-6uxEs-26">
          <mxGeometry relative="1" as="geometry" />
        </mxCell>
        <mxCell id="9MRWpv_TvlSRi_-6uxEs-1" value="&lt;div&gt;&lt;font style=&quot;font-size: 14px;&quot;&gt;Robot positions&lt;/font&gt;&lt;/div&gt;&lt;div&gt;&lt;font style=&quot;font-size: 14px;&quot;&gt;(x, y, theta)&lt;/font&gt;&lt;/div&gt;" style="shape=parallelogram;perimeter=parallelogramPerimeter;whiteSpace=wrap;html=1;fixedSize=1;" vertex="1" parent="1">
          <mxGeometry x="30" y="170" width="150" height="60" as="geometry" />
        </mxCell>
        <mxCell id="9MRWpv_TvlSRi_-6uxEs-21" style="edgeStyle=orthogonalEdgeStyle;rounded=0;orthogonalLoop=1;jettySize=auto;html=1;entryX=0.5;entryY=0;entryDx=0;entryDy=0;" edge="1" parent="1" source="9MRWpv_TvlSRi_-6uxEs-2" target="9MRWpv_TvlSRi_-6uxEs-19">
          <mxGeometry relative="1" as="geometry" />
        </mxCell>
        <mxCell id="9MRWpv_TvlSRi_-6uxEs-2" value="&lt;div&gt;&lt;font style=&quot;font-size: 14px;&quot;&gt;Global occupancy&lt;/font&gt;&lt;/div&gt;&lt;div&gt;&lt;font style=&quot;font-size: 14px;&quot;&gt;grid&lt;/font&gt;&lt;/div&gt;" style="shape=parallelogram;perimeter=parallelogramPerimeter;whiteSpace=wrap;html=1;fixedSize=1;" vertex="1" parent="1">
          <mxGeometry x="200" y="170" width="150" height="60" as="geometry" />
        </mxCell>
        <mxCell id="9MRWpv_TvlSRi_-6uxEs-27" style="edgeStyle=orthogonalEdgeStyle;rounded=0;orthogonalLoop=1;jettySize=auto;html=1;entryX=0.75;entryY=0;entryDx=0;entryDy=0;" edge="1" parent="1" source="9MRWpv_TvlSRi_-6uxEs-3" target="9MRWpv_TvlSRi_-6uxEs-22">
          <mxGeometry relative="1" as="geometry" />
        </mxCell>
        <mxCell id="9MRWpv_TvlSRi_-6uxEs-3" value="&lt;font style=&quot;font-size: 14px;&quot;&gt;Points of interest (unexplored areas)&lt;/font&gt;" style="shape=parallelogram;perimeter=parallelogramPerimeter;whiteSpace=wrap;html=1;fixedSize=1;" vertex="1" parent="1">
          <mxGeometry x="370" y="170" width="150" height="60" as="geometry" />
        </mxCell>
        <mxCell id="9MRWpv_TvlSRi_-6uxEs-16" value="" style="edgeStyle=orthogonalEdgeStyle;rounded=0;orthogonalLoop=1;jettySize=auto;html=1;" edge="1" parent="1" source="9MRWpv_TvlSRi_-6uxEs-4" target="9MRWpv_TvlSRi_-6uxEs-15">
          <mxGeometry relative="1" as="geometry" />
        </mxCell>
        <mxCell id="9MRWpv_TvlSRi_-6uxEs-4" value="&lt;div&gt;&lt;font style=&quot;font-size: 14px;&quot;&gt;Next goal position&amp;nbsp;&lt;/font&gt;&lt;/div&gt;&lt;div&gt;&lt;font style=&quot;font-size: 14px;&quot;&gt;for robot (x, y)&lt;/font&gt;&lt;/div&gt;" style="shape=parallelogram;perimeter=parallelogramPerimeter;whiteSpace=wrap;html=1;fixedSize=1;" vertex="1" parent="1">
          <mxGeometry x="30" y="930" width="150" height="60" as="geometry" />
        </mxCell>
        <mxCell id="9MRWpv_TvlSRi_-6uxEs-38" value="" style="edgeStyle=orthogonalEdgeStyle;rounded=0;orthogonalLoop=1;jettySize=auto;html=1;" edge="1" parent="1" source="9MRWpv_TvlSRi_-6uxEs-5" target="9MRWpv_TvlSRi_-6uxEs-37">
          <mxGeometry relative="1" as="geometry" />
        </mxCell>
        <mxCell id="9MRWpv_TvlSRi_-6uxEs-5" value="&lt;font style=&quot;font-size: 14px;&quot;&gt;Mapping priorities for unexplored areas&lt;/font&gt;" style="shape=parallelogram;perimeter=parallelogramPerimeter;whiteSpace=wrap;html=1;fixedSize=1;" vertex="1" parent="1">
          <mxGeometry x="200" y="930" width="170" height="60" as="geometry" />
        </mxCell>
        <mxCell id="9MRWpv_TvlSRi_-6uxEs-6" value="" style="endArrow=none;dashed=1;html=1;rounded=0;strokeWidth=2;" edge="1" parent="1">
          <mxGeometry width="50" height="50" relative="1" as="geometry">
            <mxPoint x="9" y="130" as="sourcePoint" />
            <mxPoint x="819" y="130" as="targetPoint" />
          </mxGeometry>
        </mxCell>
        <mxCell id="9MRWpv_TvlSRi_-6uxEs-9" style="edgeStyle=orthogonalEdgeStyle;rounded=0;orthogonalLoop=1;jettySize=auto;html=1;entryX=0.5;entryY=0;entryDx=0;entryDy=0;" edge="1" parent="1" source="9MRWpv_TvlSRi_-6uxEs-7" target="9MRWpv_TvlSRi_-6uxEs-1">
          <mxGeometry relative="1" as="geometry" />
        </mxCell>
        <mxCell id="9MRWpv_TvlSRi_-6uxEs-7" value="&lt;font style=&quot;font-size: 14px;&quot;&gt;Get current robot position of selected robot from odometry&lt;/font&gt;" style="rounded=1;whiteSpace=wrap;html=1;absoluteArcSize=1;arcSize=14;strokeWidth=2;" vertex="1" parent="1">
          <mxGeometry x="40" y="20" width="130" height="80" as="geometry" />
        </mxCell>
        <mxCell id="9MRWpv_TvlSRi_-6uxEs-11" value="" style="edgeStyle=orthogonalEdgeStyle;rounded=0;orthogonalLoop=1;jettySize=auto;html=1;" edge="1" parent="1" source="9MRWpv_TvlSRi_-6uxEs-10" target="9MRWpv_TvlSRi_-6uxEs-2">
          <mxGeometry relative="1" as="geometry" />
        </mxCell>
        <mxCell id="9MRWpv_TvlSRi_-6uxEs-10" value="&lt;div&gt;&lt;font style=&quot;font-size: 14px;&quot;&gt;Global occupancy grid merged from local occupancy&amp;nbsp;&lt;/font&gt;&lt;/div&gt;&lt;div&gt;&lt;font style=&quot;font-size: 14px;&quot;&gt;grid of robots&lt;/font&gt;&lt;/div&gt;" style="rounded=1;whiteSpace=wrap;html=1;absoluteArcSize=1;arcSize=14;strokeWidth=2;" vertex="1" parent="1">
          <mxGeometry x="210" y="20" width="130" height="80" as="geometry" />
        </mxCell>
        <mxCell id="9MRWpv_TvlSRi_-6uxEs-13" value="" style="edgeStyle=orthogonalEdgeStyle;rounded=0;orthogonalLoop=1;jettySize=auto;html=1;" edge="1" parent="1" source="9MRWpv_TvlSRi_-6uxEs-12" target="9MRWpv_TvlSRi_-6uxEs-3">
          <mxGeometry relative="1" as="geometry" />
        </mxCell>
        <mxCell id="9MRWpv_TvlSRi_-6uxEs-12" value="&lt;font style=&quot;font-size: 14px;&quot;&gt;Received from RViz or other visualization software&lt;/font&gt;" style="rounded=1;whiteSpace=wrap;html=1;absoluteArcSize=1;arcSize=14;strokeWidth=2;" vertex="1" parent="1">
          <mxGeometry x="380" y="20" width="130" height="80" as="geometry" />
        </mxCell>
        <mxCell id="9MRWpv_TvlSRi_-6uxEs-15" value="&lt;font style=&quot;font-size: 14px;&quot;&gt;Sent into corresponding ROS topic for given robot&lt;/font&gt;" style="rounded=1;whiteSpace=wrap;html=1;absoluteArcSize=1;arcSize=14;strokeWidth=2;" vertex="1" parent="1">
          <mxGeometry x="40" y="1060" width="130" height="80" as="geometry" />
        </mxCell>
        <mxCell id="9MRWpv_TvlSRi_-6uxEs-17" value="" style="endArrow=none;dashed=1;html=1;rounded=0;strokeWidth=2;" edge="1" parent="1">
          <mxGeometry width="50" height="50" relative="1" as="geometry">
            <mxPoint x="9" y="1020" as="sourcePoint" />
            <mxPoint x="819" y="1020" as="targetPoint" />
          </mxGeometry>
        </mxCell>
        <mxCell id="9MRWpv_TvlSRi_-6uxEs-23" style="edgeStyle=orthogonalEdgeStyle;rounded=0;orthogonalLoop=1;jettySize=auto;html=1;entryX=0.25;entryY=0;entryDx=0;entryDy=0;exitX=0.5;exitY=1;exitDx=0;exitDy=0;" edge="1" parent="1" source="9MRWpv_TvlSRi_-6uxEs-19" target="9MRWpv_TvlSRi_-6uxEs-22">
          <mxGeometry relative="1" as="geometry">
            <mxPoint x="180" y="450" as="targetPoint" />
            <Array as="points">
              <mxPoint x="275" y="390" />
              <mxPoint x="381" y="390" />
            </Array>
          </mxGeometry>
        </mxCell>
        <mxCell id="9MRWpv_TvlSRi_-6uxEs-19" value="&lt;font style=&quot;font-size: 14px;&quot;&gt;Find unexplored areas (frontiers)&lt;/font&gt;" style="rounded=1;whiteSpace=wrap;html=1;absoluteArcSize=1;arcSize=14;strokeWidth=2;" vertex="1" parent="1">
          <mxGeometry x="205" y="280" width="140" height="80" as="geometry" />
        </mxCell>
        <mxCell id="9MRWpv_TvlSRi_-6uxEs-30" style="edgeStyle=orthogonalEdgeStyle;rounded=0;orthogonalLoop=1;jettySize=auto;html=1;entryX=0.75;entryY=0;entryDx=0;entryDy=0;exitX=0.5;exitY=1;exitDx=0;exitDy=0;" edge="1" parent="1" source="9MRWpv_TvlSRi_-6uxEs-22" target="9MRWpv_TvlSRi_-6uxEs-26">
          <mxGeometry relative="1" as="geometry" />
        </mxCell>
        <mxCell id="9MRWpv_TvlSRi_-6uxEs-22" value="&lt;font style=&quot;font-size: 14px;&quot;&gt;Factor in occasional POIs (areas with higher priority)&lt;/font&gt;" style="rounded=1;whiteSpace=wrap;html=1;absoluteArcSize=1;arcSize=14;strokeWidth=2;" vertex="1" parent="1">
          <mxGeometry x="348" y="430" width="130" height="80" as="geometry" />
        </mxCell>
        <mxCell id="9MRWpv_TvlSRi_-6uxEs-36" style="edgeStyle=orthogonalEdgeStyle;rounded=0;orthogonalLoop=1;jettySize=auto;html=1;entryX=0.5;entryY=0;entryDx=0;entryDy=0;exitX=0.707;exitY=0.975;exitDx=0;exitDy=0;exitPerimeter=0;" edge="1" parent="1" source="9MRWpv_TvlSRi_-6uxEs-26" target="9MRWpv_TvlSRi_-6uxEs-34">
          <mxGeometry relative="1" as="geometry" />
        </mxCell>
        <mxCell id="9MRWpv_TvlSRi_-6uxEs-26" value="&lt;font style=&quot;font-size: 14px;&quot;&gt;Assign targets based on distribution of robots in environment&lt;/font&gt;" style="rounded=1;whiteSpace=wrap;html=1;absoluteArcSize=1;arcSize=14;strokeWidth=2;" vertex="1" parent="1">
          <mxGeometry x="150" y="570" width="150" height="80" as="geometry" />
        </mxCell>
        <mxCell id="9MRWpv_TvlSRi_-6uxEs-32" value="" style="edgeStyle=orthogonalEdgeStyle;rounded=0;orthogonalLoop=1;jettySize=auto;html=1;" edge="1" parent="1" source="9MRWpv_TvlSRi_-6uxEs-31" target="9MRWpv_TvlSRi_-6uxEs-4">
          <mxGeometry relative="1" as="geometry" />
        </mxCell>
        <mxCell id="9MRWpv_TvlSRi_-6uxEs-31" value="&lt;font style=&quot;font-size: 14px;&quot;&gt;Transform target into suitable format&lt;/font&gt;" style="rounded=1;whiteSpace=wrap;html=1;absoluteArcSize=1;arcSize=14;strokeWidth=2;" vertex="1" parent="1">
          <mxGeometry x="40" y="780" width="130" height="80" as="geometry" />
        </mxCell>
        <mxCell id="9MRWpv_TvlSRi_-6uxEs-33" style="edgeStyle=orthogonalEdgeStyle;rounded=0;orthogonalLoop=1;jettySize=auto;html=1;entryX=0.5;entryY=0;entryDx=0;entryDy=0;exitX=0.25;exitY=1;exitDx=0;exitDy=0;" edge="1" parent="1" source="9MRWpv_TvlSRi_-6uxEs-26" target="9MRWpv_TvlSRi_-6uxEs-31">
          <mxGeometry relative="1" as="geometry" />
        </mxCell>
        <mxCell id="9MRWpv_TvlSRi_-6uxEs-35" value="" style="edgeStyle=orthogonalEdgeStyle;rounded=0;orthogonalLoop=1;jettySize=auto;html=1;" edge="1" parent="1" source="9MRWpv_TvlSRi_-6uxEs-34" target="9MRWpv_TvlSRi_-6uxEs-5">
          <mxGeometry relative="1" as="geometry" />
        </mxCell>
        <mxCell id="9MRWpv_TvlSRi_-6uxEs-34" value="&lt;font style=&quot;font-size: 14px;&quot;&gt;Determine potential higher priority targets that are currently too far from every robot&lt;/font&gt;" style="rounded=1;whiteSpace=wrap;html=1;absoluteArcSize=1;arcSize=14;strokeWidth=2;" vertex="1" parent="1">
          <mxGeometry x="210" y="780" width="150" height="80" as="geometry" />
        </mxCell>
        <mxCell id="9MRWpv_TvlSRi_-6uxEs-37" value="&lt;font style=&quot;font-size: 14px;&quot;&gt;Save POIs for future use&lt;/font&gt;" style="rounded=1;whiteSpace=wrap;html=1;absoluteArcSize=1;arcSize=14;strokeWidth=2;" vertex="1" parent="1">
          <mxGeometry x="220" y="1060" width="130" height="80" as="geometry" />
        </mxCell>
        <mxCell id="9MRWpv_TvlSRi_-6uxEs-39" value="&lt;font style=&quot;font-size: 16px;&quot;&gt;Swarm optimization algorithm&lt;/font&gt;" style="shape=process;whiteSpace=wrap;html=1;backgroundOutline=1;" vertex="1" parent="1">
          <mxGeometry x="430" y="575" width="130" height="70" as="geometry" />
        </mxCell>
        <mxCell id="9MRWpv_TvlSRi_-6uxEs-40" value="" style="shape=flexArrow;endArrow=classic;startArrow=classic;html=1;rounded=0;exitX=1;exitY=0.5;exitDx=0;exitDy=0;entryX=0;entryY=0.5;entryDx=0;entryDy=0;" edge="1" parent="1" source="9MRWpv_TvlSRi_-6uxEs-26" target="9MRWpv_TvlSRi_-6uxEs-39">
          <mxGeometry width="100" height="100" relative="1" as="geometry">
            <mxPoint x="500" y="800" as="sourcePoint" />
            <mxPoint x="600" y="700" as="targetPoint" />
          </mxGeometry>
        </mxCell>
      </root>
    </mxGraphModel>
  </diagram>
</mxfile>
